<?xml version="1.0" standalone="no"?>
<svg xmlns="http://www.w3.org/2000/svg" viewBox="0 0 98 66" width="98" height="66"><g fill="#a16aff" color="#a16aff" transform="translate(30.45 0) scale(0.754717) "><svg width="48.0" height="53.0" x="0.0" y="0.0" viewBox="0 0 48 53"><path fill="currentColor" fill-rule="evenodd" d="M37.438 36.432c-1.614 1.086-2.725.974-3.506.532a38.361 38.361 0 0 1 9.177-9.947c-.351 2.954-2.689 7.41-5.67 9.415zm-26.876 0c-2.982-2.004-5.32-6.46-5.67-9.415a38.36 38.36 0 0 1 9.176 9.947c-.781.442-1.892.554-3.506-.532zm34.317-14.22l-1.436.955a41.329 41.329 0 0 0-11.44 11.386c-.204-.704-.076-1.343.197-2.01.641-1.559 2.25-3.393 4.114-5.518 1.574-1.795 3.405-3.882 5.136-6.357l.001.001c.086-.119.167-.238.246-.357a39.007 39.007 0 0 0 2.249-3.69C46.674 11.508 48 6.071 48 0h-2.945c0 5.402-1.166 9.814-2.86 13.508a31.88 31.88 0 0 0-.833-1.84c-.858-1.792-1.744-3.646-1.744-6.022h-2.945c0 3.044 1.126 5.4 2.032 7.293 1.183 2.474 1.735 3.824.62 5.617-1.16 1.709-2.388 3.233-3.571 4.622-.349-1.304-.996-2.543-1.677-3.845-1.04-1.99-2.117-4.05-2.117-6.44h-2.945c0 3.114 1.302 5.606 2.452 7.805 1.515 2.897 2.244 4.506.872 6.423-1.259 1.504-2.287 2.902-2.863 4.304-.885 2.155-.64 4.132.752 6.015a40.845 40.845 0 0 0-3.96 9.941L24 49.064l-2.268-1.683a40.84 40.84 0 0 0-3.96-9.94c1.393-1.884 1.637-3.86.752-6.016-.576-1.402-1.604-2.8-2.863-4.304-1.372-1.917-.643-3.525.872-6.423 1.15-2.2 2.452-4.691 2.452-7.804H16.04c0 2.39-1.076 4.448-2.117 6.44-.68 1.301-1.328 2.54-1.677 3.844-1.183-1.389-2.41-2.913-3.572-4.622-1.114-1.793-.562-3.143.621-5.617.906-1.893 2.032-4.249 2.032-7.292H8.382c0 2.375-.886 4.229-1.744 6.022a31.777 31.777 0 0 0-.832 1.84C4.11 9.813 2.946 5.401 2.946 0H0c0 6.07 1.326 11.508 4.054 16.622a38.962 38.962 0 0 0 2.249 3.69c.078.119.16.238.246.357 1.732 2.474 3.563 4.561 5.137 6.356 1.864 2.125 3.473 3.96 4.114 5.519.273.666.4 1.305.196 2.009a41.332 41.332 0 0 0-11.44-11.386l-1.435-.956-.719 1.568c-.888 1.937-.561 4.873.899 8.054 1.357 2.958 3.457 5.59 5.617 7.043 2.33 1.567 4.666 1.768 6.635.63a38.21 38.21 0 0 1 3.444 9.085l.125.52L24 52.732l4.878-3.62.125-.52a38.213 38.213 0 0 1 3.444-9.086c1.969 1.139 4.304.938 6.634-.629 2.161-1.452 4.261-4.085 5.618-7.043 1.46-3.18 1.787-6.117.898-8.054l-.718-1.568z"></path></svg></g><path fill="#5e00ff" fill-rule="nonzero" d="M15.87 1.37L15.87 15.64L18.08 15.64L18.08 16.65Q17.87 16.76 17.50 16.86Q17.13 16.96 16.69 17.03Q16.24 17.11 15.75 17.16Q15.26 17.20 14.79 17.20L14.79 17.20Q14.43 17.20 14.12 17.16Q13.82 17.12 13.59 17.00Q13.37 16.88 13.24 16.66Q13.11 16.44 13.11 16.08L13.11 16.08L13.11 9.14L5.02 9.14L5.02 13.30Q5.02 14.05 5.06 14.63Q5.10 15.20 5.16 15.63Q5.23 16.05 5.29 16.34Q5.34 16.63 5.38 16.80L5.38 16.80Q5.20 16.90 4.99 16.97Q4.78 17.05 4.55 17.10Q4.32 17.16 4.10 17.18Q3.88 17.20 3.68 17.20L3.68 17.20Q3.38 17.20 3.11 17.14Q2.85 17.09 2.66 16.95Q2.47 16.82 2.37 16.59Q2.26 16.37 2.26 16.03L2.26 16.03L2.26 1.68L0 1.68L0 0.75Q0.18 0.66 0.53 0.56Q0.88 0.47 1.34 0.39Q1.80 0.30 2.36 0.26Q2.91 0.21 3.48 0.21L3.48 0.21L4.01 0.21Q4.23 0.21 4.42 0.21Q4.61 0.21 4.74 0.26Q4.88 0.32 4.95 0.44Q5.02 0.56 5.02 0.82L5.02 0.82L5.02 7.49L13.11 7.49L13.11 4.01Q13.11 3.26 13.07 2.70Q13.03 2.13 12.97 1.72Q12.90 1.31 12.84 1.04Q12.79 0.77 12.75 0.60L12.75 0.60Q12.93 0.50 13.14 0.43Q13.35 0.35 13.58 0.30Q13.80 0.26 14.03 0.23Q14.25 0.21 14.45 0.21L14.45 0.21Q14.75 0.21 15.02 0.27Q15.28 0.33 15.47 0.46Q15.66 0.59 15.76 0.81Q15.87 1.04 15.87 1.37L15.87 1.37ZM23.46 8.73L23.46 8.73Q23.46 10.31 23.72 11.64Q23.98 12.97 24.56 13.93Q25.14 14.89 26.07 15.43Q27 15.96 28.34 15.96L28.34 15.96Q29.66 15.96 30.58 15.42Q31.50 14.88 32.08 13.92Q32.66 12.96 32.92 11.64Q33.19 10.31 33.19 8.73L33.19 8.73Q33.19 7.24 32.93 5.92Q32.67 4.61 32.10 3.62Q31.52 2.64 30.60 2.06Q29.67 1.49 28.34 1.49L28.34 1.49Q27 1.49 26.07 2.08Q25.14 2.67 24.56 3.67Q23.98 4.66 23.72 5.98Q23.46 7.29 23.46 8.73ZM36.23 8.73L36.23 8.73Q36.23 10.66 35.70 12.27Q35.16 13.88 34.14 15.03Q33.12 16.18 31.65 16.82Q30.19 17.45 28.34 17.45L28.34 17.45Q26.48 17.45 25.01 16.82Q23.54 16.18 22.52 15.03Q21.50 13.88 20.96 12.27Q20.41 10.66 20.41 8.73L20.41 8.73Q20.41 6.80 20.96 5.19Q21.50 3.59 22.52 2.43Q23.54 1.28 25.01 0.64Q26.48 0 28.34 0L28.34 0Q30.19 0 31.65 0.64Q33.12 1.28 34.14 2.43Q35.16 3.59 35.70 5.19Q36.23 6.80 36.23 8.73ZM44.05 16.03L44.05 2.09Q42.95 2.09 41.97 2.17Q40.99 2.25 40.19 2.36Q39.39 2.46 38.79 2.56Q38.20 2.66 37.89 2.71L37.89 2.71Q37.89 2.70 37.86 2.55Q37.83 2.41 37.78 2.19Q37.73 1.97 37.70 1.72Q37.66 1.46 37.66 1.28L37.66 1.28Q37.66 0.89 38.01 0.71Q38.36 0.53 38.95 0.46Q39.55 0.40 40.35 0.42Q41.14 0.43 42.06 0.43L42.06 0.43L45.49 0.43Q46.03 0.43 46.82 0.43Q47.60 0.43 48.57 0.40Q49.54 0.36 50.64 0.28Q51.75 0.20 52.91 0.05L52.91 0.05L52.91 0.05Q52.91 0.06 52.95 0.17Q52.98 0.28 53.02 0.46Q53.05 0.64 53.09 0.87Q53.12 1.10 53.12 1.35L53.12 1.35Q53.12 1.64 52.92 1.80Q52.71 1.97 52.37 2.04Q52.03 2.12 51.59 2.14Q51.15 2.16 50.67 2.16L50.67 2.16Q49.34 2.16 48.41 2.13Q47.48 2.11 46.82 2.09L46.82 2.09L46.82 13.30Q46.82 14.05 46.86 14.63Q46.90 15.20 46.96 15.63Q47.02 16.05 47.07 16.34Q47.13 16.63 47.17 16.80L47.17 16.80Q46.99 16.90 46.78 16.97Q46.57 17.05 46.34 17.10Q46.11 17.16 45.89 17.18Q45.67 17.20 45.47 17.20L45.47 17.20Q45.16 17.20 44.90 17.14Q44.64 17.09 44.45 16.95Q44.26 16.82 44.16 16.59Q44.05 16.37 44.05 16.03L44.05 16.03ZM57.18 16.99L57.18 16.99Q56.63 16.95 56.44 16.72Q56.26 16.49 56.26 15.98L56.26 15.98L56.26 1.85L54.02 1.85L54.02 0.91Q54.38 0.80 55.14 0.67Q55.91 0.55 56.94 0.45Q57.97 0.34 59.20 0.28Q60.43 0.21 61.71 0.21L61.71 0.21Q62.26 0.21 62.92 0.22Q63.59 0.23 64.25 0.28Q64.91 0.32 65.53 0.39Q66.15 0.46 66.63 0.59Q67.11 0.71 67.40 0.91Q67.69 1.10 67.69 1.37L67.69 1.37Q67.69 1.49 67.54 1.79Q67.39 2.10 67.21 2.43Q67.02 2.77 66.84 3.05Q66.67 3.34 66.61 3.41L66.61 3.41Q66.61 3.40 66.30 3.19Q65.99 2.98 65.36 2.72Q64.73 2.47 63.80 2.26Q62.86 2.05 61.62 2.04L61.62 2.04L59.02 2.02L59.02 7.56L65.21 7.56L65.21 8.13Q65.21 8.75 64.95 8.98Q64.69 9.21 64.11 9.21L64.11 9.21L59.02 9.21L59.02 15.34L61.14 15.34Q62.71 15.34 64.29 15.13Q65.87 14.92 67.39 14.43L67.39 14.43Q67.39 14.44 67.43 14.55Q67.46 14.66 67.51 14.85Q67.56 15.04 67.60 15.28Q67.64 15.52 67.64 15.75L67.64 15.75Q67.64 16.30 67.36 16.58Q67.08 16.86 66.46 16.99Q65.84 17.11 64.82 17.12Q63.81 17.13 62.36 17.13L62.36 17.13Q61.56 17.13 60.76 17.12Q59.95 17.11 59.26 17.09Q58.56 17.07 58.01 17.04Q57.47 17.02 57.18 16.99ZM74.65 0.82L74.65 15.34L76.77 15.34Q78.34 15.34 79.92 15.13Q81.50 14.92 83.03 14.43L83.03 14.43Q83.03 14.44 83.06 14.55Q83.10 14.66 83.14 14.85Q83.19 15.04 83.23 15.28Q83.27 15.52 83.27 15.75L83.27 15.75Q83.27 16.27 83.01 16.55Q82.75 16.83 82.13 16.96Q81.52 17.09 80.50 17.11Q79.49 17.13 77.99 17.13L77.99 17.13Q77.19 17.13 76.39 17.12Q75.59 17.11 74.89 17.09Q74.19 17.07 73.65 17.04Q73.10 17.02 72.81 16.99L72.81 16.99Q72.26 16.95 72.08 16.72Q71.89 16.49 71.89 15.98L71.89 15.98L71.89 1.68L69.63 1.68L69.63 0.75Q69.81 0.66 70.16 0.56Q70.51 0.47 70.97 0.39Q71.44 0.30 71.99 0.26Q72.54 0.21 73.11 0.21L73.11 0.21Q73.57 0.21 73.86 0.22Q74.16 0.23 74.33 0.29Q74.51 0.34 74.58 0.47Q74.65 0.60 74.65 0.82L74.65 0.82ZM91.05 6.98L91.05 6.98Q91.76 7.28 92.48 7.60Q93.21 7.92 93.88 8.29Q94.56 8.66 95.15 9.09Q95.74 9.53 96.18 10.05Q96.62 10.58 96.87 11.21Q97.13 11.85 97.13 12.62L97.13 12.62Q97.13 13.77 96.67 14.67Q96.21 15.56 95.44 16.18Q94.66 16.79 93.63 17.12Q92.60 17.45 91.46 17.45L91.46 17.45Q89.94 17.45 88.41 17.06Q86.88 16.68 85.54 15.77L85.54 15.77Q85.28 15.61 85.03 15.34Q84.79 15.07 84.79 14.77L84.79 14.77Q84.79 14.52 84.96 14.33L84.96 14.33L86.16 12.91Q86.72 13.36 87.40 13.89Q88.08 14.41 88.80 14.87Q89.52 15.33 90.23 15.63Q90.95 15.94 91.58 15.94L91.58 15.94Q92.11 15.94 92.61 15.76Q93.12 15.59 93.51 15.26Q93.90 14.94 94.14 14.48Q94.38 14.02 94.38 13.44L94.38 13.44Q94.38 12.70 94.00 12.09Q93.61 11.48 92.97 10.97Q92.33 10.46 91.52 10.04Q90.70 9.62 89.85 9.27L89.85 9.27Q88.43 8.67 87.55 8.07Q86.67 7.46 86.19 6.86Q85.70 6.26 85.53 5.66Q85.36 5.06 85.36 4.49L85.36 4.49Q85.36 3.62 85.65 2.95Q85.95 2.29 86.44 1.79Q86.94 1.29 87.61 0.95Q88.28 0.61 89.03 0.40Q89.78 0.19 90.57 0.09Q91.36 0 92.11 0L92.11 0Q92.44 0 92.88 0.03Q93.33 0.06 93.81 0.12Q94.29 0.18 94.76 0.28Q95.23 0.38 95.60 0.52Q95.96 0.67 96.19 0.87Q96.42 1.07 96.42 1.32L96.42 1.32Q96.42 1.52 96.28 1.78L96.28 1.78L95.34 3.39Q94.83 3.09 94.28 2.77Q93.73 2.44 93.13 2.17Q92.53 1.91 91.89 1.73Q91.25 1.56 90.55 1.56L90.55 1.56Q90.06 1.56 89.60 1.71Q89.14 1.86 88.80 2.17Q88.46 2.48 88.26 2.95Q88.05 3.41 88.05 4.03L88.05 4.03Q88.05 4.56 88.31 4.99Q88.56 5.43 88.97 5.79Q89.39 6.15 89.93 6.45Q90.47 6.74 91.05 6.98Z" transform="translate(0, 48)"></path></svg>